<svg width="102" height="32" viewBox="0 0 102 32" fill="none" xmlns="http://www.w3.org/2000/svg">
<g id="Vector">
<path d="M0 4.8C0 2.14903 2.14903 0 4.8 0H97.0716C99.7225 0 101.872 2.14903 101.872 4.8V27.2C101.872 29.851 99.7225 32 97.0716 32H4.8C2.14904 32 0 29.851 0 27.2V4.8Z" fill="#333333"/>
<path d="M19.64 6.66V21.922H25.62V24.808H16V6.66H19.64Z" fill="white"/>
<path d="M36.3576 24.99C31.2356 24.99 27.0496 21.142 27.0496 15.682C27.0496 10.248 31.2356 6.4 36.3576 6.4C41.5316 6.4 45.6396 10.248 45.6396 15.682C45.6396 21.142 41.5056 24.99 36.3576 24.99ZM36.3576 21.74C39.6336 21.74 41.8956 19.374 41.8956 15.682C41.8956 11.99 39.6336 9.676 36.3576 9.676C33.0556 9.676 30.7936 11.99 30.7936 15.682C30.7936 19.374 33.0556 21.74 36.3576 21.74Z" fill="white"/>
<path d="M65.1697 12.12H60.9837C60.1517 10.586 58.6437 9.78 56.7197 9.78C53.4697 9.78 51.2077 12.094 51.2077 15.708C51.2077 19.4 53.4957 21.688 56.8757 21.688C59.6837 21.688 61.4777 20.076 62.0237 17.502H55.7837V14.72H65.6117V17.892C64.8837 21.584 61.5817 24.964 56.7457 24.964C51.4677 24.964 47.4637 21.142 47.4637 15.708C47.4637 10.274 51.4677 6.426 56.7197 6.426C60.7757 6.426 63.9997 8.48 65.1697 12.12Z" fill="white"/>
<path d="M76.7287 24.99C71.6067 24.99 67.4207 21.142 67.4207 15.682C67.4207 10.248 71.6067 6.4 76.7287 6.4C81.9027 6.4 86.0107 10.248 86.0107 15.682C86.0107 21.142 81.8767 24.99 76.7287 24.99ZM76.7287 21.74C80.0047 21.74 82.2667 19.374 82.2667 15.682C82.2667 11.99 80.0047 9.676 76.7287 9.676C73.4267 9.676 71.1647 11.99 71.1647 15.682C71.1647 19.374 73.4267 21.74 76.7287 21.74Z" fill="white"/>
</g>
</svg>
